<svg width="22" height="22" viewBox="0 0 22 22" fill="none" xmlns="http://www.w3.org/2000/svg">
<rect x="0.25" y="0.25" width="21.5" height="21.5" stroke="black" stroke-width="0.5"/>
<path d="M19.0452 6.26391L9.54516 15.7639C9.49002 15.8191 9.42454 15.8629 9.35246 15.8928C9.28038 15.9227 9.20311 15.9381 9.12509 15.9381C9.04706 15.9381 8.9698 15.9227 8.89772 15.8928C8.82563 15.8629 8.76015 15.8191 8.70501 15.7639L4.54876 11.6077C4.43735 11.4963 4.37476 11.3451 4.37476 11.1876C4.37476 11.03 4.43735 10.8789 4.54876 10.7675C4.66017 10.6561 4.81128 10.5935 4.96884 10.5935C5.1264 10.5935 5.2775 10.6561 5.38891 10.7675L9.12509 14.5044L18.205 5.42376C18.3164 5.31235 18.4675 5.24976 18.6251 5.24976C18.7826 5.24976 18.9338 5.31235 19.0452 5.42376C19.1566 5.53517 19.2192 5.68628 19.2192 5.84384C19.2192 6.0014 19.1566 6.1525 19.0452 6.26391Z" fill="black"/>
</svg>
