<svg width="16" height="11" viewBox="0 0 16 11" fill="none" xmlns="http://www.w3.org/2000/svg">
<path d="M15.0452 1.26391L5.54516 10.7639C5.49002 10.8191 5.42454 10.8629 5.35246 10.8928C5.28038 10.9227 5.20311 10.9381 5.12509 10.9381C5.04706 10.9381 4.9698 10.9227 4.89772 10.8928C4.82563 10.8629 4.76015 10.8191 4.70501 10.7639L0.548758 6.60766C0.437346 6.49625 0.374756 6.34515 0.374756 6.18759C0.374756 6.03003 0.437346 5.87892 0.548758 5.76751C0.66017 5.6561 0.811276 5.59351 0.968836 5.59351C1.1264 5.59351 1.2775 5.6561 1.38891 5.76751L5.12509 9.50442L14.205 0.423758C14.3164 0.312346 14.4675 0.249756 14.6251 0.249756C14.7826 0.249756 14.9338 0.312346 15.0452 0.423758C15.1566 0.535169 15.2192 0.686276 15.2192 0.843836C15.2192 1.0014 15.1566 1.1525 15.0452 1.26391Z" fill="black"/>
</svg>
